<?xml version="1.0" ?><svg clip-rule="evenodd" fill-rule="evenodd" image-rendering="optimizeQuality" shape-rendering="geometricPrecision" text-rendering="geometricPrecision" viewBox="0 0 500 500" xmlns="http://www.w3.org/2000/svg"><defs><linearGradient gradientUnits="userSpaceOnUse" id="a" x1="349.803" x2="150.193" y1="60.001" y2="60.001"><stop offset="0" stop-color="#0076D8"/><stop offset=".541" stop-color="#9DD2FF"/><stop offset="1" stop-color="#008BFF"/></linearGradient><linearGradient gradientUnits="userSpaceOnUse" id="b" x1="299.998" x2="199.998" y1="139.998" y2="139.998"><stop offset="0" stop-color="#0076D8"/><stop offset=".541" stop-color="#9DD2FF"/><stop offset="1" stop-color="#008BFF"/></linearGradient><linearGradient gradientUnits="userSpaceOnUse" id="c" x1="379.998" x2="119.998" y1="242.502" y2="242.502"><stop offset="0" stop-color="#0076D8"/><stop offset=".541" stop-color="#9DD2FF"/><stop offset="1" stop-color="#008BFF"/></linearGradient></defs><g><polygon fill="#979798" points="235,285 265,285 265,430 250,475 235,430"/><path d="M190 80h120c20 0 37-15 40-34 0-2-1-3-2-4s-2-2-3-2h-190c-1 0-2 1-3 2s-2 2-2 4c3 19 20 34 40 34z" fill="url(#a)" stroke="#434242" stroke-width="10"/><rect fill="url(#b)" height="120" stroke="#434242" stroke-width="10" width="100" x="200" y="80"/><polygon fill="#474747" points="235,285 265,285 265,300 235,300"/><path d="M125 285h250c3 0 5-2 5-5v-10c0-39-32-70-70-70h-115c-41 0-75 34-75 75v5c0 3 2 5 5 5z" fill="url(#c)" stroke="#434242" stroke-width="10"/></g></svg>